<?xml version="1.0" encoding="utf-8"?>
<!DOCTYPE svg PUBLIC "-//W3C//DTD SVG 1.0//EN" "http://www.w3.org/TR/2001/REC-SVG-20010904/DTD/svg10.dtd">
<svg version="1.0" xmlns="http://www.w3.org/2000/svg" width="414px" height="512px" viewBox="0 0 414 512" preserveAspectRatio="xMidYMid meet">
 <g fill="#ffffff">
  <path d="M194.3 494.8 c-6.6 -5.1 -49.2 -37.3 -94.5 -71.6 -45.2 -34.3 -84.9 -64.3 -88 -66.8 l-5.8 -4.4 0 -60.5 0 -60.5 24 0 24 0 0 31 0 31 4.5 0 4.5 0 0 -18.5 0 -18.5 9 0 9 0 0 5 0 5 6.5 0 6.5 0 0 -5 0 -5 10 0 10 0 0 36 0 36 4.5 0 4.5 0 0 -7 0 -7 9 0 9 0 0 7 0 7 6 0 6 0 0 -7 0 -7 11.2 0 11.1 0 -0.7 66.2 c-0.4 36.5 -0.9 66.4 -1.1 66.6 -0.2 0.2 -10 -6.9 -21.9 -15.7 l-21.6 -16.1 0 -23.5 0 -23.5 -3 0 -3 0 0 6.3 c0 3.4 -0.3 12.6 -0.7 20.4 l-0.6 14.2 -4.3 -3 c-2.4 -1.6 -4.9 -4 -5.6 -5.2 -0.8 -1.5 -1.3 -9.9 -1.5 -25.2 -0.2 -12.6 -0.6 -24 -0.9 -25.2 -0.3 -1.9 -1.1 -2.3 -3.9 -2.3 -4.3 0 -4.2 -0.6 -5 23.4 -0.3 10.4 -0.7 19.1 -0.9 19.4 -0.2 0.2 -7.9 -5.3 -17.1 -12.2 -9.1 -6.9 -17 -12.6 -17.6 -12.6 -0.5 0 -0.9 -10.7 -0.9 -26.9 0 -30 0 -30.1 -6.5 -30.1 -2.4 0 -3.8 0.6 -4.5 1.9 -0.6 1.2 -1 13 -1 31.4 l0 29.4 23.8 18 c68.9 52.1 105.2 79.3 106.2 79.3 0.7 0 1 -33.8 1 -105.7 l0.1 -105.8 10.9 -15 c6 -8.2 11.4 -15 12 -15 0.6 0 6 6.8 12 15 l10.9 15 0.1 105.8 c0 71.9 0.3 105.7 1 105.7 0.9 0 48.6 -35.6 115.8 -86.5 l14.2 -10.8 0 -29.4 c0 -18.4 -0.4 -30.2 -1 -31.4 -1.5 -2.7 -8.5 -2.7 -10 0 -0.6 1.2 -1 12.1 -1 28.3 l0 26.4 -3.2 1.9 c-1.8 1 -9.7 6.8 -17.6 12.8 -7.9 6 -14.6 10.7 -14.8 10.4 -0.3 -0.3 -0.8 -9 -1 -19.4 -0.7 -23.8 -0.5 -23.3 -4.9 -23.3 -2.8 0 -3.6 0.4 -3.9 2.3 -0.3 1.2 -0.7 12.6 -1 25.4 -0.2 13.9 -0.9 23.9 -1.5 25.2 -0.6 1.1 -3.1 3.4 -5.5 5 l-4.3 3 -0.6 -14.2 c-0.4 -7.8 -0.7 -17 -0.7 -20.4 l0 -6.3 -3 0 -3 0 0 23.5 0 23.5 -21.5 16.1 c-11.9 8.9 -21.8 16 -22 15.7 -0.2 -0.2 -0.7 -30.2 -1.1 -66.6 l-0.7 -66.2 11.1 0 11.2 0 0 7 0 7 6 0 6 0 0 -7 0 -7 9 0 9 0 0 7 0 7 4.5 0 4.5 0 0 -36 0 -36 10 0 10 0 0 5 0 5 6.5 0 6.5 0 0 -5 0 -5 8.5 0 8.5 0 0 18.5 0 18.5 5 0 5 0 0 -31 0 -31 24 0 24 0 -0.2 60.8 -0.3 60.7 -66.5 50.3 c-36.6 27.6 -81.3 61.5 -99.4 75.3 -18.1 13.8 -33.4 25.3 -34 25.5 -0.6 0.2 -6.6 -3.8 -13.3 -8.8z m14.5 -100.6 l0.2 -92.2 3 0 3 0 0 -8 0 -8 -3 0 -3 0 0 -27 c0 -26.3 0 -27 -2 -27 -2 0 -2 0.7 -2 27 l0 27 -3 0 -3 0 0 8 0 8 3 0 3 0 0 91.8 c0 50.5 0.3 92.2 0.7 92.6 2.6 2.6 2.8 -3.1 3.1 -92.2z m-185.4 -50.8 c0.8 -2.2 0.6 -96.3 -0.3 -99.4 -0.8 -2.8 -3.9 -3.9 -5.2 -1.8 -1 1.5 -1.2 97 -0.3 100.6 0.7 2.6 4.8 3.1 5.8 0.6z m373 0 c0.9 -2.5 0.7 -99.7 -0.3 -101.2 -1.3 -2.1 -4.4 -1 -5.2 1.8 -0.9 3.1 -1.1 97.2 -0.3 99.4 0.3 0.9 1.6 1.6 2.9 1.6 1.3 0 2.6 -0.7 2.9 -1.6z"/>
  <path d="M138 247.7 l0 -51.3 -8.5 -11.4 -8.5 -11.5 43 -0.5 c23.7 -0.3 62.3 -0.3 86 0 l43 0.5 -8.5 11.5 -8.5 11.4 0 51.3 0 51.3 -18.5 0 -18.5 0 0 -22.7 0 -22.8 -14.8 -20.5 c-12.1 -16.7 -15.3 -20.5 -17.2 -20.5 -1.9 0 -5.1 3.8 -17.2 20.5 l-14.8 20.5 0 22.8 0 22.7 -18.5 0 -18.5 0 0 -51.3z m47 -49.6 c0 -14 -0.1 -14.1 -12 -14.1 -11 0 -11 0 -11 14.4 l0 10.6 11.5 0 11.5 0 0 -10.9z m67 0 c0 -14 -0.1 -14.1 -12 -14.1 -11 0 -11 0 -11 14.4 l0 10.6 11.5 0 11.5 0 0 -10.9z"/>
  <path d="M0.1 208.8 c0.1 -9 0.4 -22.8 0.8 -30.7 l0.6 -14.5 13.5 14.9 c7.4 8.1 14 15 14.6 15.2 0.6 0.2 7.1 -6.4 14.5 -14.7 l13.4 -15.1 0.6 10.3 c0.4 5.7 0.7 19.4 0.8 30.6 l0.1 20.2 -29.5 0 -29.5 0 0.1 -16.2z"/>
  <path d="M355.2 201.3 c0.1 -13.1 0.5 -26.9 0.8 -30.6 l0.5 -6.8 13.4 15 c7.3 8.3 13.7 15.1 14.1 15.1 0.8 0 8.5 -8.1 20.5 -21.5 l8 -8.9 0.6 15 c0.4 8.2 0.7 22 0.8 30.7 l0.1 15.7 -29.5 0 -29.6 0 0.3 -23.7z"/>
  <path d="M29.4 156.6 c-0.9 -15.6 -1 -15.8 -3.8 -18.2 -2.6 -2.3 -2.7 -2.7 -1.6 -5.5 0.7 -1.7 1 -4.9 0.7 -7.6 -0.4 -3.7 -0.1 -5.2 1.5 -7.4 1.1 -1.5 2.9 -5.1 3.9 -8.1 1.8 -5.3 1.8 -5.3 1.9 -1.6 0 6 2.1 13.9 4.1 15.9 1.5 1.5 1.7 2.4 0.9 3.9 -1.8 3.3 -1.1 10.2 1.4 14.6 l2.4 4.2 -2.4 1 c-3.8 1.8 -5.4 5.4 -6.7 15.3 l-1.3 9.4 -1 -15.9z"/>
  <path d="M382.7 165.2 c-1.1 -9.8 -2.8 -14.3 -6.3 -16.7 l-3 -2 2.3 -4 c2.4 -4.3 3 -11.3 1.3 -14.5 -0.8 -1.5 -0.6 -2.4 0.9 -3.9 2 -2 4.1 -9.9 4.1 -15.9 0.1 -3.7 0.1 -3.7 1.9 1.6 1 3 2.8 6.6 3.9 8.1 1.6 2.2 1.9 3.7 1.5 7.4 -0.3 2.7 0 5.9 0.7 7.7 1.2 2.8 1 3.2 -1.3 5.1 -3.2 2.4 -3.6 4.7 -4.5 21.5 l-0.7 12.9 -0.8 -7.3z"/>
  <path d="M117 150.5 l0 -9.5 90 0 90 0 0 9.5 0 9.5 -90 0 -90 0 0 -9.5z"/>
  <path d="M138.1 117.3 c0.1 -9.3 0.4 -23.2 0.8 -31 l0.6 -14.1 11.5 16.9 c6.3 9.3 12 16.9 12.7 16.9 2.3 0 5.3 -4.9 31.2 -51.1 l8.2 -14.7 1.6 -14.3 c2.2 -20 2.4 -20 4.6 -0.2 l1.6 14.2 18 32.3 c21.4 38.2 19.4 35 21.2 34.3 0.8 -0.3 6.6 -8.1 12.9 -17.4 l11.5 -16.9 0.6 14.6 c0.4 8.1 0.7 22 0.8 31 l0.1 16.2 -69 0 -69 0 0.1 -16.7z"/>
 </g>
</svg>