<?xml version="1.0" encoding="utf-8"?>
<!DOCTYPE svg PUBLIC "-//W3C//DTD SVG 1.0//EN" "http://www.w3.org/TR/2001/REC-SVG-20010904/DTD/svg10.dtd">
<svg version="1.0" xmlns="http://www.w3.org/2000/svg" width="512px" height="512px" viewBox="0 0 512 512" preserveAspectRatio="xMidYMid meet">
 <g fill="#ffffff">
  <path d="M241 493.7 c-8 -6.2 -28.2 -21.6 -45 -34.3 -16.8 -12.7 -37 -28 -45 -34 -8 -6.1 -32.8 -24.8 -55.2 -41.8 l-40.8 -30.8 0 -60.9 0 -60.9 24 0 24 0 0 31 0 31 4.5 0 4.5 0 0 -18.5 0 -18.5 9 0 9 0 0 5 0 5 6.5 0 6.5 0 0 -5 0 -5 10 0 10 0 0 36 0 36 4.5 0 4.5 0 0 -7 0 -7 9 0 9 0 0 7 0 7 6 0 6 0 0 -7 0 -7 11 0 11 0 0 67.6 c0 53.9 -0.3 67.5 -1.2 66.7 -0.7 -0.5 -10.9 -8 -22.5 -16.7 l-21.3 -15.9 -0.2 -23.6 -0.3 -23.6 -2.5 0 -2.5 0 -0.5 20.8 -0.5 20.7 -3.9 -2.6 c-9.4 -6.4 -8.6 -3.5 -8.6 -31.9 0 -26.4 -0.2 -27.5 -4.5 -27.5 -4.2 0 -4.5 1.3 -4.5 23.8 0 20.8 -0.1 21.4 -1.9 20.1 -1 -0.8 -7.7 -5.9 -14.7 -11.3 -7.1 -5.4 -14.6 -11 -16.6 -12.3 l-3.8 -2.3 0 -26.9 c0 -24.7 -0.1 -26.9 -1.8 -28.4 -2.5 -2.2 -6.5 -2.1 -8.6 0.1 -1.5 1.7 -1.6 5 -1.4 31.2 l0.3 29.4 27.5 20.8 c79 59.7 101.7 76.8 102.3 76.8 0.4 0 0.7 -47.7 0.7 -106.1 l0 -106.1 11.1 -15.4 c6 -8.5 11.4 -15.4 11.9 -15.4 0.5 0 5.9 6.9 11.9 15.4 l11.1 15.4 0 106.1 c0 58.4 0.3 106.1 0.7 106.1 0.6 0 23.3 -17.1 102.3 -76.8 l27.5 -20.8 0.3 -29.4 c0.2 -26.2 0.1 -29.5 -1.4 -31.2 -2.2 -2.3 -6.6 -2.3 -8.7 0 -1.5 1.6 -1.7 5.1 -1.7 28.5 l0 26.7 -3.7 2.3 c-2.1 1.3 -9.6 6.9 -16.7 12.3 -7 5.4 -13.7 10.5 -14.7 11.3 -1.8 1.3 -1.9 0.7 -1.9 -20.1 0 -22.5 -0.3 -23.8 -4.5 -23.8 -4.3 0 -4.5 1.1 -4.5 27.5 0 28.4 0.8 25.5 -8.6 31.9 l-3.9 2.6 -0.5 -20.7 -0.5 -20.8 -2.5 0 -2.5 0 -0.3 23.6 -0.2 23.6 -21.3 15.9 c-11.6 8.7 -21.8 16.2 -22.4 16.7 -1 0.8 -1.3 -12.8 -1.3 -66.7 l0 -67.6 11 0 11 0 0 7 0 7 6 0 6 0 0 -7 0 -7 9 0 9 0 0 7 0 7 4.5 0 4.5 0 0 -36 0 -36 10 0 10 0 0 5 0 5 6.5 0 6.5 0 0 -5 0 -5 8.5 0 8.5 0 0 18.5 0 18.5 5 0 5 0 0 -31 0 -31 24 0 24 0 0 60.9 0 60.9 -40.7 30.8 c-22.5 17 -47.3 35.7 -55.3 41.8 -8 6 -28.2 21.3 -45 34 -16.8 12.7 -37 28.1 -45 34.3 -8 6.2 -14.7 11.3 -15 11.3 -0.3 0 -7 -5.1 -15 -11.3z m17 -99.2 l0 -92.5 3 0 3 0 0 -8 0 -8 -3 0 -3 0 0 -27 c0 -26.3 0 -27 -2 -27 -2 0 -2 0.7 -2 27 l0 27 -3 0 -3 0 0 8 0 8 3 0 3 0 0 92.5 c0 91.8 0 92.5 2 92.5 2 0 2 -0.7 2 -92.5z m-186 -51.5 c0.7 -1.3 0.9 -18.3 0.8 -51.1 -0.3 -44.6 -0.5 -49.3 -2 -50.2 -1.2 -0.8 -2.1 -0.7 -3.2 0.2 -1.4 1.2 -1.6 6.9 -1.6 51 0 50.6 0.1 52.1 3.7 52.1 0.7 0 1.7 -0.9 2.3 -2z m372.8 0.8 c0.9 -0.9 1.2 -13.6 1.2 -50.9 0 -44.1 -0.2 -49.8 -1.6 -51 -1.1 -0.9 -2 -1 -3.2 -0.2 -1.5 0.9 -1.7 5.6 -2 50.8 -0.1 35.9 0.1 50.2 0.9 51.1 1.4 1.7 3.1 1.8 4.7 0.2z"/>
  <path d="M187 248.2 l0 -50.8 -9 -12.1 c-4.9 -6.7 -9 -12.4 -9 -12.7 0 -0.3 39.2 -0.6 87 -0.6 47.9 0 87 0.3 87 0.6 0 0.3 -4 6 -9 12.7 l-9 12.1 0 50.8 0 50.8 -18.5 0 -18.5 0 0 -22.2 0 -22.3 -11.6 -16 c-6.3 -8.8 -13.2 -18.4 -15.2 -21.2 -2 -2.9 -4.4 -5.3 -5.2 -5.3 -0.8 0 -3.2 2.4 -5.2 5.3 -2 2.8 -8.9 12.4 -15.2 21.2 l-11.6 16 0 22.3 0 22.2 -18.5 0 -18.5 0 0 -50.8z m47 -49.9 c0 -13.8 -0.4 -14.3 -11.3 -14.3 -11.4 0 -11.7 0.4 -11.7 14.2 l0 10.8 11.5 0 11.5 0 0 -10.7z m67 0 c0 -13.8 -0.4 -14.3 -11.3 -14.3 -11.4 0 -11.7 0.4 -11.7 14.2 l0 10.8 11.5 0 11.5 0 0 -10.7z"/>
  <path d="M49 193.4 c0 -18.8 0.4 -31.4 0.9 -31.2 0.5 0.2 7.1 7.4 14.6 16.1 7.5 8.6 14.1 15.5 14.6 15.1 0.5 -0.3 6.4 -6.7 13.1 -14.2 6.6 -7.5 12.9 -14.6 13.9 -15.7 1.9 -1.9 1.9 -1.2 1.9 29.8 l0 31.7 -29.5 0 -29.5 0 0 -31.6z"/>
  <path d="M404 193.3 c0 -31 0 -31.7 1.9 -29.8 1 1.1 7.3 8.2 13.9 15.7 6.7 7.5 12.6 13.9 13.1 14.2 0.5 0.4 7.1 -6.5 14.6 -15.1 7.5 -8.7 14.1 -15.9 14.6 -16.1 0.5 -0.2 0.9 12.4 0.9 31.2 l0 31.6 -29.5 0 -29.5 0 0 -31.7z"/>
  <path d="M78.7 171.6 c-0.4 -2.7 -0.7 -9.8 -0.7 -15.8 0 -11.9 -1.4 -17.2 -4.9 -18.3 -2.5 -0.7 -2.5 -1.2 -0.6 -4.5 1.7 -3 1.9 -7.4 0.4 -10.2 -0.9 -1.7 -0.6 -2.5 1.6 -4.8 1.6 -1.7 3.5 -5.5 4.5 -9.2 l1.7 -6.3 0.8 8 c0.8 8.3 2.4 12.8 5.1 14.3 1.5 0.8 1.5 1.1 -0.1 3.6 -2.4 3.6 -1.6 10.5 1.8 15 l2.6 3.4 -3 1.2 c-4.2 1.8 -5.9 5.7 -7 16.3 -1.3 12.6 -1.4 12.9 -2.2 7.3z"/>
  <path d="M431.3 165.9 c-1.3 -12 -2.9 -16.1 -7.2 -17.9 l-3 -1.2 2.6 -3.4 c3.4 -4.5 4.2 -11.4 1.8 -15 -1.6 -2.5 -1.6 -2.8 -0.1 -3.6 2.7 -1.5 4.3 -6 5.1 -14.3 l0.8 -8 1.7 6.3 c1 3.7 2.9 7.5 4.5 9.2 2.2 2.3 2.5 3.1 1.6 4.8 -1.5 2.8 -1.3 7.2 0.4 10.2 1.9 3.3 1.9 3.8 -0.6 4.5 -3.5 1.2 -4.9 6.4 -5 19.2 0 6.5 -0.3 13.6 -0.8 15.8 -0.6 3.5 -0.8 2.7 -1.8 -6.6z"/>
  <path d="M166 150.5 l0 -9.5 90 0 90 0 0 9.5 0 9.5 -90 0 -90 0 0 -9.5z"/>
  <path d="M187 102 c0 -17.6 0.2 -32 0.4 -32 0.3 0 5.5 7.5 11.7 16.8 6.1 9.2 11.9 17.5 12.9 18.5 1.8 2 2.4 1.1 30.3 -48.8 l9.5 -17 1.7 -16.8 c1 -9.2 2.1 -16.7 2.5 -16.7 0.4 0 1.5 7.5 2.5 16.8 l1.8 16.7 12 21.5 c6.7 11.8 14.9 26.6 18.3 32.9 3.4 6.2 6.6 11.7 7.1 12.2 1.3 1.3 2.3 -0.1 15.2 -19.3 6.2 -9.3 11.4 -16.8 11.7 -16.8 0.2 0 0.4 14.4 0.4 32 l0 32 -69 0 -69 0 0 -32z"/>
 </g>
</svg>